<?xml version="1.0" encoding="UTF-8"?><svg id="Logos" xmlns="http://www.w3.org/2000/svg" viewBox="0 0 1350 950"><defs><style>.cls-1{fill:#0014dc;}</style></defs><path class="cls-1" d="M647,635c-191.38-153.23-271.22-350-472-350v350h472Z"/><path class="cls-1" d="M1054.03,279.75c-39.08,0-74.02,17-94.28,41.96V175h-47.25v350h38.9l4.99-36.79c13.72,18.37,41.67,42.04,95.37,42.04,72.14,0,123.25-51.57,123.25-124.67s-49.04-125.83-120.97-125.83Zm-12.94,206.66c-52.04,0-83.11-30.98-83.11-81.34s31.83-81.34,83.11-81.34,83.11,30.98,83.11,81.34-31.83,81.34-83.11,81.34Z"/><rect class="cls-1" x="830.25" y="175" width="47.25" height="350"/><path class="cls-1" d="M696.69,489.45c-34.46,0-70.64-16.81-90.07-40.97l-31.87,30.33c31.08,35.22,71.73,51.44,119.9,51.44,66.11,0,107.6-29.45,107.6-79.11,0-103.23-179.33-38.67-179.33-96.85,0-21.29,24.83-33.35,63.5-33.35,34.46,0,59.34,11.17,74.81,27.14l31.87-30.33c-21.1-22.7-60.83-38-105.49-38-66.81,0-110.76,31.61-110.76,81.63,0,100.39,178.62,36.54,178.62,95.07,0,20.58-23.28,32.99-58.79,32.99Z"/><path class="cls-1" d="M1169.75,600h-510.75c105.43,86.03,267.31,175,510.75,175v-175Z"/></svg>